#!OML:ASF G:\JayActor3\Patient Classification 1\Patient 1\Session 5\male.ASF
:FULLY-SPECIFIED
:DEGREES
771
root 3.60957 16.944 -6.84378 419.419 -89.2047 -62.9094
lowerback -0.192658 -0.72966 -0.0728821
upperback 0.794429 -0.979026 0.45279
thorax 0.929887 -0.493043 0.494235
lowerneck -5.57522 -1.54835 1.22274
upperneck 0.335113 -2.1819 0.958729
head 1.02615 -1.07952 0.0368209
rclavicle -8.40176e-015 4.37326e-015
rhumerus 4.49918 -13.4635 -25.8605
rradius 24.2737
rwrist 10.9952
rhand -10.2565 -12.4335
rfingers 7.12502
rthumb 15.7366 -41.8138
lclavicle -8.40176e-015 4.37326e-015
lhumerus -1.25075 -3.7445 21.5672
lradius 30.4881
lwrist 14.4081
lhand -15.4894 32.4102
lfingers 7.12502
lthumb 10.6927 62.1181
rfemur -2.58539 -0.826201 17.5076
rtibia 30.9676
rfoot -28.7373 -18.4931
rtoes 9.27654
lfemur 7.29115 7.0696 -13.9607
ltibia 7.49267
lfoot -10.7807 14.3513
ltoes 4.38801
772
root 3.61086 16.9435 -6.84724 417.036 -89.1771 -60.5669
lowerback -0.173417 -0.739137 -0.0678877
upperback 0.810657 -0.991862 0.454547
thorax 0.935779 -0.499514 0.493242
lowerneck -5.57407 -1.55918 1.2158
upperneck 0.401306 -2.19645 0.974014
head 1.04712 -1.08576 0.0419243
rclavicle 3.58744e-016 -7.8023e-015
rhumerus 4.64111 -13.6531 -25.81
rradius 24.1553
rwrist 11.1658
rhand -10.1392 -12.3623
rfingers 7.12502
rthumb 15.8496 -41.7336
lclavicle 3.58744e-016 -7.8023e-015
lhumerus -1.102 -3.80876 21.3751
lradius 30.43
lwrist 14.5332
lhand -15.4312 32.4795
lfingers 7.12502
lthumb 10.7489 62.1845
rfemur -2.52846 -0.830224 17.5365
rtibia 30.9545
rfoot -28.7785 -18.5207
rtoes 9.31955
lfemur 7.32591 7.02229 -13.9438
ltibia 7.4884
lfoot -10.7796 14.3705
ltoes 4.38427
773
root 3.61218 16.943 -6.85053 414.748 -89.1494 -58.318
lowerback -0.155131 -0.748799 -0.0623012
upperback 0.82663 -1.00495 0.456267
thorax 0.941935 -0.506104 0.491867
lowerneck -5.57324 -1.56914 1.20958
upperneck 0.467525 -2.20989 0.988101
head 1.06814 -1.09146 0.0465628
rclavicle -5.15753e-015 -6.16232e-015
rhumerus 4.76989 -13.8258 -25.7653
rradius 24.0477
rwrist 11.3227
rhand -10.0325 -12.2964
rfingers 7.12502
rthumb 15.9524 -41.6595
lclavicle -5.15753e-015 -6.16232e-015
lhumerus -0.965496 -3.87757 21.2005
lradius 30.3734
lwrist 14.652
lhand -15.374 32.5475
lfingers 7.12502
lthumb 10.804 62.2497
rfemur -2.47188 -0.831754 17.5638
rtibia 30.9411
rfoot -28.8214 -18.5498
rtoes 9.3636
lfemur 7.36099 6.97493 -13.929
ltibia 7.48204
lfoot -10.7778 14.3897
ltoes 4.38284
774
root 3.61352 16.9426 -6.85361 412.486 -89.1217 -56.0951
lowerback -0.137518 -0.758679 -0.0563218
upperback 0.842385 -1.01832 0.457589
thorax 0.948233 -0.512834 0.489858
lowerneck -5.57265 -1.57839 1.20438
upperneck 0.533244 -2.22243 1.00023
head 1.08904 -1.09676 0.0504562
rclavicle -2.34038e-015 2.98177e-016
rhumerus 4.88077 -13.9659 -25.7204
rradius 23.9571
rwrist 11.4491
rhand -9.93602 -12.2404
rfingers 7.12502
rthumb 16.0453 -41.5961
lclavicle -2.34038e-015 2.98177e-016
lhumerus -0.839609 -3.94749 21.0436
lradius 30.3176
lwrist 14.7618
lhand -15.3159 32.6068
lfingers 7.12502
lthumb 10.8601 62.306
rfemur -2.41536 -0.83192 17.5884
rtibia 30.9275
rfoot -28.8655 -18.5798
rtoes 9.40826
lfemur 7.39612 6.92703 -13.9172
ltibia 7.474
lfoot -10.7742 14.4095
ltoes 4.3767
775
root 3.61485 16.9421 -6.85653 410.284 -89.0941 -53.9315
lowerback -0.121152 -0.768647 -0.0501742
upperback 0.857833 -1.03181 0.458646
thorax 0.954907 -0.519617 0.48747
lowerneck -5.5722 -1.58685 1.19983
upperneck 0.598918 -2.23398 1.01122
head 1.10994 -1.10157 0.0539146
rclavicle 2.18974e-016 4.47266e-015
rhumerus 4.98079 -14.0947 -25.6814
rradius 23.8753
rwrist 11.5659
rhand -9.8495 -12.1886
rfingers 7.12502
rthumb 16.1286 -41.5375
lclavicle 2.18974e-016 4.47266e-015
lhumerus -0.724701 -4.01893 20.9033
lradius 30.2642
lwrist 14.8651
lhand -15.2632 32.6718
lfingers 7.12502
lthumb 10.9109 62.3683
rfemur -2.35919 -0.830848 17.6107
rtibia 30.9136
rfoot -28.9105 -18.6105
rtoes 9.45358
lfemur 7.4314 6.87908 -13.9078
ltibia 7.46422
lfoot -10.7698 14.4293
ltoes 4.37073
776
root 3.6162 16.9417 -6.85926 408.17 -89.0659 -51.8552
lowerback -0.105565 -0.778616 -0.0426161
upperback 0.87268 -1.04531 0.459519
thorax 0.961371 -0.526387 0.484101
lowerneck -5.57146 -1.59482 1.19611
upperneck 0.664224 -2.2449 1.02078
head 1.13067 -1.10609 0.0568167
rclavicle 1.28713e-014 2.93207e-015
rhumerus 5.0695 -14.2098 -25.6468
rradius 23.8031
rwrist 11.6687
rhand -9.77282 -12.1426
rfingers 7.12502
rthumb 16.2024 -41.4855
lclavicle 1.28713e-014 2.93207e-015
lhumerus -0.620099 -4.09021 20.779
lradius 30.2126
lwrist 14.9601
lhand -15.2121 32.7268
lfingers 7.12502
lthumb 10.9601 62.4207
rfemur -2.30351 -0.828271 17.6316
rtibia 30.8995
rfoot -28.9565 -18.6415
rtoes 9.50034
lfemur 7.46708 6.83118 -13.9001
ltibia 7.45206
lfoot -10.7641 14.4493
ltoes 4.36471
777
root 3.61754 16.9412 -6.8618 406.101 -89.0377 -49.8235
lowerback -0.0911005 -0.788759 -0.0345151
upperback 0.887188 -1.05904 0.460055
thorax 0.9681 -0.533265 0.480069
lowerneck -5.57144 -1.60204 1.19297
upperneck 0.729644 -2.25488 1.02925
head 1.15155 -1.11016 0.0593023
rclavicle -5.08143e-015 -2.48481e-015
rhumerus 5.14862 -14.3129 -25.6168
rradius 23.7393
rwrist 11.7583
rhand -9.70488 -12.1012
rfingers 7.12502
rthumb 16.2678 -41.4387
lclavicle -5.08143e-015 -2.48481e-015
lhumerus -0.525311 -4.15924 20.67
lradius 30.1629
lwrist 15.0455
lhand -15.1649 32.7781
lfingers 7.12502
lthumb 11.0057 62.4696
rfemur -2.24813 -0.825237 17.65
rtibia 30.8851
rfoot -29.0031 -18.6725
rtoes 9.54759
lfemur 7.50241 6.78318 -13.8948
ltibia 7.4388
lfoot -10.7578 14.4692
ltoes 4.35824
778
root 3.61887 16.9408 -6.86416 404.087 -89.0092 -47.8454
lowerback -0.0777409 -0.799057 -0.025887
upperback 0.901257 -1.07297 0.460308
thorax 0.974983 -0.540237 0.47544
lowerneck -5.57131 -1.60864 1.19094
upperneck 0.794461 -2.26408 1.03614
head 1.17221 -1.11388 0.0611441
rclavicle -1.86873e-014 -2.98177e-016
rhumerus 5.21824 -14.4025 -25.5903
rradius 23.6843
rwrist 11.8318
rhand -9.64491 -12.065
rfingers 7.12502
rthumb 16.3256 -41.3979
lclavicle -1.86873e-014 -2.98177e-016
lhumerus -0.440055 -4.22664 20.5753
lradius 30.1165
lwrist 15.1232
lhand -15.1189 32.8264
lfingers 7.12502
lthumb 11.0501 62.5155
rfemur -2.19322 -0.819456 17.6668
rtibia 30.8702
rfoot -29.0515 -18.7051
rtoes 9.59589
lfemur 7.53744 6.73518 -13.8915
ltibia 7.42434
lfoot -10.7504 14.4893
ltoes 4.34943
779
root 3.62021 16.9404 -6.86634 402.163 -88.9801 -45.9582
lowerback -0.0648213 -0.809436 -0.0159268
upperback 0.914925 -1.08701 0.460583
thorax 0.981676 -0.547252 0.470085
lowerneck -5.57096 -1.61459 1.18946
upperneck 0.858656 -2.27243 1.04186
head 1.19264 -1.11719 0.062557
rclavicle -1.86003e-014 9.14409e-015
rhumerus 5.27922 -14.4794 -25.5667
rradius 23.6372
rwrist 11.8896
rhand -9.59191 -12.0343
rfingers 7.12502
rthumb 16.3766 -41.3629
lclavicle -1.86003e-014 9.14409e-015
lhumerus -0.363875 -4.29028 20.4947
lradius 30.0723
lwrist 15.191
lhand -15.0782 32.8681
lfingers 7.12502
lthumb 11.0893 62.5551
rfemur -2.13838 -0.812765 17.6825
rtibia 30.8553
rfoot -29.1003 -18.7379
rtoes 9.64464
lfemur 7.57337 6.68731 -13.8893
ltibia 7.40746
lfoot -10.7415 14.5096
ltoes 4.33905
780
root 3.62154 16.94 -6.86837 400.3 -88.951 -44.1296
lowerback -0.0528165 -0.819764 -0.00558247
upperback 0.928127 -1.10099 0.460571
thorax 0.988386 -0.554223 0.464215
lowerneck -5.57139 -1.62003 1.18834
upperneck 0.922725 -2.28014 1.04685
head 1.21316 -1.12019 0.0636964
rclavicle 4.1869e-015 1.78906e-015
rhumerus 5.33201 -14.544 -25.5454
rradius 23.5977
rwrist 11.9309
rhand -9.5461 -12.0091
rfingers 7.12502
rthumb 16.4207 -41.3341
lclavicle 4.1869e-015 1.78906e-015
lhumerus -0.295845 -4.35068 20.4269
lradius 30.032
lwrist 15.2509
lhand -15.042 32.9098
lfingers 7.12502
lthumb 11.1242 62.595
rfemur -2.0846 -0.804479 17.6964
rtibia 30.8408
rfoot -29.1496 -18.772
rtoes 9.69138
lfemur 7.61059 6.63981 -13.8889
ltibia 7.38651
lfoot -10.7306 14.5299
ltoes 4.32892
781
root 3.62285 16.9396 -6.87025 398.463 -88.9228 -42.3276
lowerback -0.0423886 -0.829923 0.00364933
upperback 0.941085 -1.11472 0.460106
thorax 0.995736 -0.561079 0.458485
lowerneck -5.57232 -1.62488 1.18779
upperneck 0.986096 -2.28712 1.05116
head 1.23354 -1.12286 0.0645527
rclavicle -1.47877e-014 1.88845e-015
rhumerus 5.37752 -14.5978 -25.5264
rradius 23.565
rwrist 11.9581
rhand -9.50693 -11.99
rfingers 7.12502
rthumb 16.4584 -41.3119
lclavicle -1.47877e-014 1.88845e-015
lhumerus -0.234684 -4.40389 20.3716
lradius 29.9932
lwrist 15.2988
lhand -15.0094 32.9433
lfingers 7.12502
lthumb 11.1557 62.6268
rfemur -2.03211 -0.793868 17.7078
rtibia 30.8267
rfoot -29.2003 -18.8065
rtoes 9.74032
lfemur 7.64841 6.59303 -13.8914
ltibia 7.36234
lfoot -10.7178 14.5504
ltoes 4.31722
782
root 3.62419 16.9392 -6.8719 396.54 -88.8952 -40.4371
lowerback -0.0327066 -0.840359 0.0115773
upperback 0.953325 -1.1288 0.458458
thorax 1.00277 -0.568103 0.452268
lowerneck -5.57313 -1.62929 1.18781
upperneck 1.04853 -2.29352 1.05455
head 1.25361 -1.12526 0.0650477
rclavicle -2.47083e-015 8.00108e-015
rhumerus 5.41567 -14.6405 -25.5089
rradius 23.5391
rwrist 11.9721
rhand -9.47577 -11.9763
rfingers 7.12502
rthumb 16.4884 -41.2956
lclavicle -2.47083e-015 8.00108e-015
lhumerus -0.180223 -4.45049 20.3276
lradius 29.9566
lwrist 15.3338
lhand -14.9793 32.9714
lfingers 7.12502
lthumb 11.1847 62.6533
rfemur -1.98105 -0.785839 17.7134
rtibia 30.8134
rfoot -29.2497 -18.8395
rtoes 9.7872
lfemur 7.68712 6.54569 -13.8987
ltibia 7.33408
lfoot -10.7023 14.5715
ltoes 4.30236
783
root 3.62551 16.9388 -6.87344 394.707 -88.8672 -38.6373
lowerback -0.023662 -0.850619 0.019975
upperback 0.965044 -1.14264 0.456779
thorax 1.00961 -0.575003 0.445753
lowerneck -5.57412 -1.63331 1.18837
upperneck 1.11048 -2.29944 1.05747
head 1.27355 -1.12744 0.0653202
rclavicle 2.74727e-015 -7.95139e-016
rhumerus 5.4473 -14.6743 -25.4932
rradius 23.5188
rwrist 11.9767
rhand -9.45292 -11.9671
rfingers 7.12502
rthumb 16.5104 -41.2847
lclavicle 2.74727e-015 -7.95139e-016
lhumerus -0.131859 -4.49061 20.294
lradius 29.9224
lwrist 15.3589
lhand -14.9527 32.9936
lfingers 7.12502
lthumb 11.2104 62.674
rfemur -1.93079 -0.775425 17.7186
rtibia 30.8007
rfoot -29.3007 -18.8732
rtoes 9.8354
lfemur 7.72668 6.49895 -13.9066
ltibia 7.30323
lfoot -10.686 14.5922
ltoes 4.28949
784
root 3.62683 16.9384 -6.87484 392.896 -88.8392 -36.8578
lowerback -0.0151901 -0.860677 0.0277894
upperback 0.97619 -1.15619 0.454658
thorax 1.01618 -0.581757 0.439113
lowerneck -5.57512 -1.63711 1.18942
upperneck 1.17125 -2.3051 1.0597
head 1.29312 -1.12951 0.0653134
rclavicle 4.58137e-015 3.13086e-015
rhumerus 5.47308 -14.7025 -25.4792
rradius 23.5031
rwrist 11.9768
rhand -9.43865 -11.9619
rfingers 7.12502
rthumb 16.5242 -41.2783
lclavicle 4.58137e-015 3.13086e-015
lhumerus -0.0882402 -4.52292 20.2702
lradius 29.8896
lwrist 15.3729
lhand -14.9303 33.0105
lfingers 7.12502
lthumb 11.2319 62.6898
rfemur -1.88179 -0.76641 17.7209
rtibia 30.7885
rfoot -29.3505 -18.9054
rtoes 9.88216
lfemur 7.76623 6.45249 -13.9168
ltibia 7.27051
lfoot -10.6682 14.613
ltoes 4.27455
